<svg xmlns="http://www.w3.org/2000/svg" width="40" height="40" fill="none"><g clip-path="url(#a)"><path fill="url(#b)" fill-rule="evenodd" d="M35.217 7.02C28.047-1.383 15.424-2.384 7.02 4.785S-2.383 24.577 4.785 32.98c7.17 8.403 19.793 9.404 28.196 2.235s9.404-19.792 2.236-28.196m-9.964 10.497c.77 0 1.262.836.876 1.502l-.112.192L18.47 31.63a.77.77 0 0 1-.661.372h-.72a.755.755 0 0 1-.732-.944l2.048-7.919a1 1 0 0 0-.968-1.25h-3.146a1 1 0 0 1-.968-1.25l3.09-11.955a.92.92 0 0 1 .895-.68q.076 0 .135.002h3.168a1 1 0 0 1 .991 1.134l-.02.143-1.207 7.067a1 1 0 0 0 .985 1.168z" clip-rule="evenodd"/><mask id="d" width="40" height="41" x="0" y="0" maskUnits="userSpaceOnUse" style="mask-type:alpha"><circle cx="20" cy="20.001" r="20" fill="url(#c)"/></mask><g filter="url(#e)" mask="url(#d)"><path fill="#fff" d="M1.111 13.427a20 20 0 1 0 37.957.541l-5.815 1.84a13.901 13.901 0 1 1-26.381-.376z"/></g></g><defs><radialGradient id="b" cx="0" cy="0" r="1" gradientTransform="matrix(39.0007 0 0 397.71 4 20)" gradientUnits="userSpaceOnUse"><stop stop-color="#31b2f3"/><stop offset=".474" stop-color="#f27cec"/><stop offset="1" stop-color="#fd6641"/></radialGradient><radialGradient id="c" cx="0" cy="0" r="1" gradientTransform="matrix(39 0 0 397.703 4 20.001)" gradientUnits="userSpaceOnUse"><stop stop-color="#f27cec"/><stop offset=".484" stop-color="#31b2f3"/><stop offset="1" stop-color="#7d7573"/></radialGradient><clipPath id="a"><path fill="#fff" d="M0 0h146v40.001H0z"/></clipPath><filter id="e" width="60" height="46.574" x="-10" y="3.427" color-interpolation-filters="sRGB" filterUnits="userSpaceOnUse"><feFlood flood-opacity="0" result="BackgroundImageFix"/><feBlend in="SourceGraphic" in2="BackgroundImageFix" result="shape"/><feGaussianBlur result="effect1_foregroundBlur_115_108" stdDeviation="5"/></filter></defs></svg>
