<svg xmlns="http://www.w3.org/2000/svg" width="24" height="24" viewBox="0 0 24 24">
              <title>thumbs-up</title>
              <g fill="none">
                <path d="M6 9C7.65685 9 9 10.3431 9 12L9 18C9 19.6569 7.65685 21 6 21H5C3.34315 21 2 19.6569 2 18L2 12C2 10.3431 3.34315 9 5 9L6 9Z" fill="url(#1752500502809-5959249_thumbs-up_existing_0_a0cy63fmn)" data-glass="origin" mask="url(#1752500502809-5959249_thumbs-up_mask_l45px4wxt)"></path>
                <path d="M6 9C7.65685 9 9 10.3431 9 12L9 18C9 19.6569 7.65685 21 6 21H5C3.34315 21 2 19.6569 2 18L2 12C2 10.3431 3.34315 9 5 9L6 9Z" fill="url(#1752500502809-5959249_thumbs-up_existing_0_a0cy63fmn)" data-glass="clone" filter="url(#1752500502809-5959249_thumbs-up_filter_icuzj8w1z)" clip-path="url(#1752500502809-5959249_thumbs-up_clipPath_skhr2sd4i)"></path>
                <path d="M12.9999 7.99999L13.7443 3.16208C13.892 2.20206 13.3261 1.27538 12.4047 0.96822C11.5707 0.690232 10.6531 0.991458 10.1461 1.70964L6.0982 7.44421C5.38363 8.45651 5 9.66522 5 10.9043V16.0428C5 18.8137 7.25329 21.0561 10.0241 21.0428L16.1884 21.0131C17.8269 21.0052 19.2949 19.9988 19.893 18.4734L22.3941 12.0952C23.1657 10.1274 21.7148 7.99999 19.6012 7.99999H12.9999Z" fill="url(#1752500502809-5959249_thumbs-up_existing_1_3k6pbus7f)" data-glass="blur"></path>
                <path d="M5 16.043V10.9043C5 9.74284 5.33704 8.60806 5.96777 7.63672L6.09863 7.44434L10.1465 1.70997C10.6533 0.991921 11.5705 0.690055 12.4043 0.967778C13.3258 1.27493 13.8918 2.2021 13.7441 3.16211L13 8H19.6016C21.7148 8.00028 23.1656 10.1272 22.3945 12.0947L19.8926 18.4736L19.7705 18.7529C19.1104 20.1205 17.7246 21.0053 16.1885 21.0127L10.0244 21.043L10.0205 20.293L16.1846 20.2627C17.5159 20.2563 18.7083 19.4386 19.1943 18.1992L21.6963 11.8213C22.2748 10.3456 21.1865 8.75028 19.6016 8.75H13C12.7812 8.75 12.5731 8.65437 12.4307 8.48829C12.2882 8.32221 12.2255 8.10201 12.2588 7.88575L13.0029 3.04786C13.0949 2.4493 12.7424 1.87139 12.168 1.67969C11.6478 1.50631 11.075 1.69466 10.7588 2.14258L6.71094 7.87696C6.08576 8.76269 5.75 9.82016 5.75 10.9043V16.043C5.75008 18.3981 7.66537 20.3043 10.0205 20.293L10.0244 21.043L9.76562 21.0371C7.19998 20.9189 5.13718 18.8659 5.00684 16.3008L5 16.043Z" fill="url(#1752500502809-5959249_thumbs-up_existing_2_7njgg2tw2)"></path>
                <defs>
                  <linearGradient id="1752500502809-5959249_thumbs-up_existing_0_a0cy63fmn" x1="5.5" y1="9" x2="5.5" y2="21" gradientUnits="userSpaceOnUse">
                    <stop stop-color="#575757"></stop>
                    <stop offset="1" stop-color="#151515"></stop>
                  </linearGradient>
                  <linearGradient id="1752500502809-5959249_thumbs-up_existing_1_3k6pbus7f" x1="14.5" y1=".5" x2="14.5" y2="21.067" gradientUnits="userSpaceOnUse">
                    <stop stop-color="#E3E3E5" stop-opacity=".6"></stop>
                    <stop offset="1" stop-color="#BBBBC0" stop-opacity=".6"></stop>
                  </linearGradient>
                  <linearGradient id="1752500502809-5959249_thumbs-up_existing_2_7njgg2tw2" x1="13.802" y1=".866" x2="13.802" y2="12.55" gradientUnits="userSpaceOnUse">
                    <stop stop-color="#fff"></stop>
                    <stop offset="1" stop-color="#fff" stop-opacity="0"></stop>
                  </linearGradient>
                  <filter id="1752500502809-5959249_thumbs-up_filter_icuzj8w1z" x="-100%" y="-100%" width="400%" height="400%" filterUnits="objectBoundingBox" primitiveUnits="userSpaceOnUse">
                    <feGaussianBlur stdDeviation="2" x="0%" y="0%" width="100%" height="100%" in="SourceGraphic" edgeMode="none" result="blur"></feGaussianBlur>
                  </filter>
                  <clipPath id="1752500502809-5959249_thumbs-up_clipPath_skhr2sd4i">
                    <path d="M12.9999 7.99999L13.7443 3.16208C13.892 2.20206 13.3261 1.27538 12.4047 0.96822C11.5707 0.690232 10.6531 0.991458 10.1461 1.70964L6.0982 7.44421C5.38363 8.45651 5 9.66522 5 10.9043V16.0428C5 18.8137 7.25329 21.0561 10.0241 21.0428L16.1884 21.0131C17.8269 21.0052 19.2949 19.9988 19.893 18.4734L22.3941 12.0952C23.1657 10.1274 21.7148 7.99999 19.6012 7.99999H12.9999Z" fill="url(#1752500502809-5959249_thumbs-up_existing_1_3k6pbus7f)"></path>
                  </clipPath>
                  <mask id="1752500502809-5959249_thumbs-up_mask_l45px4wxt">
                    <rect width="100%" height="100%" fill="#FFF"></rect>
                    <path d="M12.9999 7.99999L13.7443 3.16208C13.892 2.20206 13.3261 1.27538 12.4047 0.96822C11.5707 0.690232 10.6531 0.991458 10.1461 1.70964L6.0982 7.44421C5.38363 8.45651 5 9.66522 5 10.9043V16.0428C5 18.8137 7.25329 21.0561 10.0241 21.0428L16.1884 21.0131C17.8269 21.0052 19.2949 19.9988 19.893 18.4734L22.3941 12.0952C23.1657 10.1274 21.7148 7.99999 19.6012 7.99999H12.9999Z" fill="#000"></path>
                  </mask>
                </defs>
              </g>
            </svg>
