<svg xmlns="http://www.w3.org/2000/svg" width="33.511" height="32" fill="none" viewBox="19199.282 2957.23 33.511 32"><path d="M19217.508 2988.926a.8.8 0 0 1-.889.26.81.81 0 0 1-.539-.752v-7.267c0-.882-.713-1.596-1.594-1.596h-8.023a.797.797 0 0 1-.65-1.26l5.277-7.386c.346-.486.39-1.126.119-1.657a1.59 1.59 0 0 0-1.418-.865h-9.713a.8.8 0 0 1-.709-.433.8.8 0 0 1 .065-.828l6.836-9.575a.8.8 0 0 1 .648-.337h20.38a.795.795 0 0 1 .645 1.26l-5.275 7.386c-.75 1.056 0 2.522 1.303 2.522h8.023a.8.8 0 0 1 .627 1.292Z" class="fills" style="fill:#863bff"/></svg>
